<?xml version="1.0" encoding="utf-8"?>
<!-- Generator: Adobe Illustrator 22.0.1, SVG Export Plug-In . SVG Version: 6.00 Build 0)  -->
<svg version="1.1" id="Layer_1" xmlns="http://www.w3.org/2000/svg" xmlns:xlink="http://www.w3.org/1999/xlink" x="0px" y="0px"
	 viewBox="0 0 250 250" style="enable-background:new 0 0 250 250;" xml:space="preserve">
<style type="text/css">
	.st0{fill:#0AC6A6;}
</style>
<g>
	<path class="st0" d="M168.831,134.615c-0.57-1.756-2.088-3.036-3.915-3.301l-24.576-3.572l-10.99-22.267
		c-0.816-1.656-2.503-2.704-4.349-2.704s-3.533,1.048-4.349,2.704l-10.992,22.268l-24.576,3.572
		c-1.828,0.265-3.345,1.545-3.915,3.301c-0.57,1.755-0.095,3.684,1.226,4.972l17.784,17.334l-4.196,24.476
		c-0.313,1.82,0.436,3.659,1.929,4.744c1.492,1.086,3.474,1.23,5.107,0.369l21.981-11.556l21.981,11.556
		c0.71,0.373,1.483,0.557,2.257,0.557c1.006,0,2.007-0.313,2.851-0.927c1.493-1.085,2.243-2.924,1.929-4.744l-4.198-24.476
		l17.784-17.334C168.926,138.299,169.401,136.371,168.831,134.615z M141.222,151.755c-1.142,1.114-1.664,2.72-1.394,4.293
		l2.968,17.301l-15.539-8.168c-1.412-0.742-3.101-0.742-4.513,0l-15.539,8.169l2.966-17.302c0.27-1.574-0.251-3.179-1.394-4.293
		L96.207,139.5l17.372-2.524c1.58-0.229,2.946-1.221,3.652-2.653l7.77-15.742l7.769,15.742c0.706,1.432,2.072,2.424,3.652,2.654
		l17.372,2.524L141.222,151.755z"/>
	<path class="st0" d="M22.75,88.333H227.25c1.933,0,3.683-1.148,4.451-2.922c0.768-1.774,0.41-3.836-0.913-5.246l-40.826-43.54
		c-0.916-0.978-2.198-1.533-3.538-1.533H63.577c-1.34,0-2.622,0.555-3.538,1.533l-40.826,43.54c-1.323,1.41-1.681,3.472-0.913,5.246
		C19.068,87.185,20.816,88.333,22.75,88.333z M65.678,44.793h118.644l31.729,33.839H33.949L65.678,44.793z"/>
	<path class="st0" d="M227.25,205.207h-14.647V99.126h-9.701v106.081h-10.253V99.126h-9.701v106.081H63.211V99.126H53.51v106.081
		H43.257V99.126h-9.701v106.081H22.75c-2.679,0-4.851,2.172-4.851,4.851c0,2.679,2.172,4.851,4.851,4.851H227.25
		c2.679,0,4.851-2.172,4.851-4.851C232.1,207.379,229.928,205.207,227.25,205.207z"/>
</g>
</svg>
