<?xml version="1.0" encoding="utf-8"?>
<!-- Generator: Adobe Illustrator 22.0.1, SVG Export Plug-In . SVG Version: 6.00 Build 0)  -->
<svg version="1.1" id="Layer_1" xmlns="http://www.w3.org/2000/svg" xmlns:xlink="http://www.w3.org/1999/xlink" x="0px" y="0px"
	 viewBox="0 0 250 250" style="enable-background:new 0 0 250 250;" xml:space="preserve">
<style type="text/css">
	.st0{fill:#0AC6A6;}
</style>
<g>
	<path class="st0" d="M95.462,106.008c-5.998,0-11.636-2.334-15.877-6.575l-6.859,6.859c6.268,6.268,14.502,9.403,22.736,9.403
		s16.468-3.135,22.736-9.403l-6.859-6.859C107.098,103.674,101.46,106.008,95.462,106.008z"/>
	<path class="st0" d="M167.859,99.433c-8.754,8.754-22.998,8.754-31.755,0l-6.859,6.859c6.268,6.268,14.504,9.403,22.738,9.403
		s16.468-3.135,22.736-9.403L167.859,99.433z"/>
	<path class="st0" d="M88.353,143.193l-6.859,6.859c11.279,11.281,26.276,17.492,42.228,17.492c15.951,0,30.947-6.212,42.227-17.492
		l-6.859-6.859c-9.446,9.446-22.007,14.65-35.367,14.65C110.36,157.843,97.799,152.639,88.353,143.193z"/>
	<path class="st0" d="M123.722,28.316c-45.741,0-84.136,31.939-94.127,74.679h9.971c9.771-37.342,43.793-64.978,84.156-64.978
		c47.963,0,86.982,39.019,86.982,86.982s-39.019,86.983-86.982,86.983c-40.362,0-74.384-27.636-84.155-64.978h-9.971
		c9.991,42.741,48.386,74.679,94.127,74.679c53.311,0,96.683-43.372,96.683-96.685C220.405,71.688,177.033,28.316,123.722,28.316z"
		/>
</g>
</svg>
