<?xml version="1.0" encoding="utf-8"?>
<!-- Generator: Adobe Illustrator 22.0.1, SVG Export Plug-In . SVG Version: 6.00 Build 0)  -->
<svg version="1.1" id="Layer_1" xmlns="http://www.w3.org/2000/svg" xmlns:xlink="http://www.w3.org/1999/xlink" x="0px" y="0px"
	 viewBox="0 0 250 250" style="enable-background:new 0 0 250 250;" xml:space="preserve">
<style type="text/css">
	.st0{fill:#0AC6A6;}
</style>
<g>
	<path class="st0" d="M125,224.377c-0.807,0-1.613-0.177-2.359-0.536c-1.076-0.513-26.629-12.864-52.558-35.112
		c-34.846-29.902-53.265-63.413-53.265-96.911c0-48.806,29.336-66.196,56.789-66.196c23.272,0,42.435,12.915,51.393,32.492
		c8.958-19.578,28.122-32.492,51.394-32.492c27.453,0,56.788,17.39,56.788,66.196c0,33.498-18.419,67.009-53.265,96.911
		c-25.929,22.248-51.482,34.599-52.558,35.112C126.613,224.2,125.807,224.377,125,224.377z M73.607,36.549
		c-28.718,0-45.863,20.661-45.863,55.27c0,67.191,82.155,113.106,97.254,120.971c15.09-7.874,97.258-53.861,97.258-120.971
		c0-34.609-17.145-55.27-45.862-55.27c-26.614,0-45.931,19.912-45.931,47.345c0,3.017-2.446,5.463-5.463,5.463
		s-5.463-2.446-5.463-5.463C119.537,56.461,100.22,36.549,73.607,36.549z"/>
</g>
</svg>
