<?xml version="1.0" encoding="utf-8"?>
<!-- Generator: Adobe Illustrator 22.0.1, SVG Export Plug-In . SVG Version: 6.00 Build 0)  -->
<svg version="1.1" id="Layer_1" xmlns="http://www.w3.org/2000/svg" xmlns:xlink="http://www.w3.org/1999/xlink" x="0px" y="0px"
	 viewBox="0 0 250 250" style="enable-background:new 0 0 250 250;" xml:space="preserve">
<style type="text/css">
	.st0{fill:#0AC6A6;}
</style>
<path class="st0" d="M244.126,117.45l-8.965-15.312l-8.401,4.85l4.182,7.143l-21.68,13.231l-9.03,11.61l-34.062-21.263
	c7.228-1.627,10.458-5.064,11.49-6.431c0.687-0.837,1.116-1.894,1.116-3.062c0-2.681-2.173-4.854-4.854-4.854
	c-1.711,0-3.208,0.89-4.072,2.228l-0.027-0.018c0,0,0.036-0.066,0.124-0.178c-0.081,0.102-2.067,2.511-8.31,3.268
	c-5.055,0.624-18.155-5.439-25.887-9.942l-7.339-4.581l6.116-4.824l-0.023-0.029c0.98-0.888,1.607-2.158,1.607-3.585
	c0-2.681-2.173-4.854-4.854-4.854c-1.035,0-1.991,0.33-2.779,0.882l-23.626,18.638c-2.665,2.218-6.031,3.263-9.49,2.947
	c-3.454-0.317-6.577-1.959-8.794-4.625c-0.288-0.345-0.319-0.712-0.296-0.959c0.024-0.246,0.124-0.599,0.401-0.829l29.332-23.297
	h61.972l21.482-13.238l5.061,8.644l8.402-4.851L202.82,46.9l-27.59,17.002h-55.875c-2.612-0.49-15.861-2.888-23.779-2.623
	c-7.134,0.238-18.199,2.49-21.979,3.299L48.925,46.863l-5.659,7.881l23.187,16.649l-32.612,51.405l-22.31-16.019l-5.659,7.881
	l26.125,18.758l8.176,8.468l70.919,59.351l14.926,9.43c2.601,1.631,5.545,2.471,8.542,2.471c1.209,0,2.429-0.137,3.636-0.414
	c4.203-0.964,7.777-3.505,10.067-7.158c1.238-1.975,2.004-4.15,2.308-6.394c2.267,1.12,4.69,1.691,7.098,1.691
	c5.376,0,10.64-2.68,13.699-7.562c1.227-1.958,1.971-4.082,2.283-6.234c2.471,1.424,5.209,2.185,8.005,2.185
	c1.211,0,2.431-0.137,3.638-0.414c4.203-0.963,7.777-3.505,10.067-7.158c2.289-3.652,3.02-7.977,2.057-12.178
	c-0.043-0.186-0.105-0.363-0.154-0.546c3.738-1.042,7.121-3.405,9.34-6.944c2.289-3.652,3.02-7.977,2.055-12.178
	c-0.322-1.406-0.836-2.733-1.495-3.974l8.664-11.139L244.126,117.45z M198.387,156.856c-1.886,3.005-5.865,3.924-8.873,2.035
	l-25.354-15.82l-11.683-7.324c-2.27-1.422-5.262-0.735-6.687,1.533c-1.423,2.27-0.736,5.264,1.533,6.687l1.854,1.162l-0.013,0.021
	l9.842,6.141l26.101,16.363c3.008,1.885,3.921,5.865,2.036,8.873c-0.913,1.456-2.339,2.469-4.014,2.853
	c-1.671,0.386-3.4,0.094-4.858-0.82l-37.786-23.688c-0.047-0.03-0.099-0.045-0.147-0.073l-1.412-0.885
	c-2.27-1.423-5.262-0.736-6.687,1.534c-1.423,2.269-0.736,5.263,1.533,6.686l27.342,17.14c3.006,1.884,3.919,5.865,2.034,8.873
	c-1.883,3.005-5.857,3.921-8.871,2.034l-25.801-16.185l-0.035-0.022l0,0l-0.022-0.014c-2.269-1.425-5.264-0.737-6.685,1.531
	c-1.42,2.262-0.741,5.241,1.51,6.671l-0.002,0.002l14.766,9.375c1.457,0.913,2.47,2.338,2.854,4.014
	c0.384,1.675,0.093,3.4-0.82,4.858c-0.913,1.456-2.339,2.47-4.014,2.854c-1.678,0.382-3.4,0.092-4.854-0.818l-14.111-8.865
	l-70.09-58.623l-5.648-5.85l35.018-55.198c4.082-0.855,13.66-2.742,19.553-2.939c2.076-0.074,4.684,0.089,7.371,0.358L80.575,89.357
	c-2.277,1.875-3.683,4.524-3.96,7.46c-0.277,2.937,0.608,5.805,2.496,8.074c3.874,4.659,9.331,7.529,15.365,8.083
	c6.039,0.55,11.923-1.275,16.483-5.07l9.358-7.382l75.114,46.89l2.326,1.809c0.694,0.791,1.208,1.726,1.45,2.78
	C199.591,153.676,199.3,155.401,198.387,156.856z"/>
</svg>
