<?xml version="1.0" encoding="utf-8"?>
<!-- Generator: Adobe Illustrator 23.0.1, SVG Export Plug-In . SVG Version: 6.00 Build 0)  -->
<svg version="1.1" id="Layer_1" xmlns="http://www.w3.org/2000/svg" xmlns:xlink="http://www.w3.org/1999/xlink" x="0px" y="0px"
	 viewBox="0 0 250 250" style="enable-background:new 0 0 250 250;" xml:space="preserve">
<style type="text/css">
	.st0{fill:#FFFFFF;}
</style>
<g>
	<path class="st0" d="M217.126,27.006H124.4H31.673c-2.679,0-4.851,2.172-4.851,4.851v92.726v92.728
		c0,2.679,2.172,4.851,4.851,4.851h92.726h92.726c2.679,0,4.851-2.172,4.851-4.851v-92.726v-0.002V31.857
		C221.976,29.178,219.804,27.006,217.126,27.006z M212.275,119.733H129.25V36.708h83.025V119.733z M36.523,36.708h83.025v83.025
		H36.523V36.708z M36.523,129.434h83.025v83.027H36.523V129.434z M129.25,212.461v-83.025h83.025v83.025H129.25z"/>
	<path class="st0" d="M94.751,154.232c-1.895-1.895-4.964-1.895-6.859,0l-9.856,9.856l-9.856-9.856
		c-1.895-1.895-4.964-1.895-6.859,0c-1.895,1.893-1.895,4.964,0,6.859l9.856,9.856l-9.856,9.856c-1.895,1.895-1.895,4.966,0,6.859
		c0.947,0.947,2.188,1.421,3.43,1.421s2.482-0.474,3.43-1.421l9.856-9.856l9.856,9.856c0.947,0.947,2.188,1.421,3.43,1.421
		s2.482-0.474,3.43-1.421c1.895-1.893,1.895-4.964,0-6.859l-9.856-9.856l9.856-9.856C96.646,159.196,96.646,156.125,94.751,154.232z
		"/>
	<path class="st0" d="M96.825,73.37H82.886V59.431c0-2.679-2.172-4.851-4.851-4.851s-4.851,2.172-4.851,4.851V73.37H59.247
		c-2.679,0-4.851,2.172-4.851,4.851s2.172,4.851,4.851,4.851h13.937v13.937c0,2.679,2.172,4.851,4.851,4.851
		s4.851-2.172,4.851-4.851V83.072h13.939c2.679,0,4.851-2.172,4.851-4.851C101.675,75.542,99.503,73.37,96.825,73.37z"/>
	<path class="st0" d="M151.974,83.072h37.577c2.679,0,4.851-2.172,4.851-4.851s-2.172-4.851-4.851-4.851h-37.577
		c-2.679,0-4.851,2.172-4.851,4.851S149.295,83.072,151.974,83.072z"/>
	<path class="st0" d="M189.551,166.097h-37.577c-2.679,0-4.851,2.172-4.851,4.851s2.172,4.851,4.851,4.851h37.577
		c2.679,0,4.851-2.172,4.851-4.851S192.23,166.097,189.551,166.097z"/>
	<circle class="st0" cx="170.763" cy="186.949" r="5.461"/>
	<circle class="st0" cx="170.763" cy="154.946" r="5.461"/>
</g>
</svg>
