<?xml version="1.0" encoding="utf-8"?>
<!-- Generator: Adobe Illustrator 22.1.0, SVG Export Plug-In . SVG Version: 6.00 Build 0)  -->
<svg version="1.1" id="Layer_1" xmlns="http://www.w3.org/2000/svg" xmlns:xlink="http://www.w3.org/1999/xlink" x="0px" y="0px"
	 viewBox="0 0 250 250" style="enable-background:new 0 0 250 250;" xml:space="preserve">
<style type="text/css">
	.st0{fill:#0AC6A6;}
</style>
<g>
	<path class="st0" d="M168.88,91.322c-2.112-1.647-5.162-1.263-6.806,0.853l-42.506,54.672l-23.642-31.662
		c-1.604-2.146-4.641-2.589-6.789-0.984c-2.146,1.602-2.587,4.642-0.984,6.789l27.451,36.763c0.904,1.213,2.325,1.933,3.84,1.948
		c0.016,0,0.031,0,0.047,0c1.497,0,2.909-0.691,3.829-1.874l46.412-59.698C171.378,96.014,170.995,92.965,168.88,91.322z"/>
	<path class="st0" d="M208.077,59.901c-0.003-1.259-0.484-2.496-1.41-3.421l-37.524-37.524c-0.926-0.926-2.161-1.408-3.42-1.41
		l-0.009-0.012H46.762c-2.679,0-4.851,2.172-4.851,4.851v205.229c0,2.679,2.172,4.851,4.851,4.851h156.476
		c2.679,0,4.851-2.172,4.851-4.851V59.91L208.077,59.901z M170.564,34.096l20.963,20.963h-20.963V34.096z M51.613,222.764V27.236
		h109.25V59.91c0,2.679,2.172,4.851,4.851,4.851h32.674v158.003H51.613z"/>
</g>
</svg>
