<?xml version="1.0" encoding="utf-8"?>
<!-- Generator: Adobe Illustrator 23.0.1, SVG Export Plug-In . SVG Version: 6.00 Build 0)  -->
<svg version="1.1" id="Layer_1" xmlns="http://www.w3.org/2000/svg" xmlns:xlink="http://www.w3.org/1999/xlink" x="0px" y="0px"
	 viewBox="0 0 250 250" style="enable-background:new 0 0 250 250;" xml:space="preserve">
<style type="text/css">
	.st0{fill:#0AC6A6;}
</style>
<g>
	<g>
		<path class="st0" d="M223.448,172.832H47.059c-2.679,0-4.851-2.172-4.851-4.851V78.716l-15.656-11.48l5.736-7.824l17.639,12.935
			c1.246,0.914,1.983,2.367,1.983,3.912v86.872h171.538V172.832z"/>
	</g>
	<g>
		<path class="st0" d="M76.163,215.753c-10.618,0-19.256-8.639-19.256-19.256c0-10.618,8.638-19.255,19.256-19.255
			s19.256,8.637,19.256,19.255C95.419,207.114,86.781,215.753,76.163,215.753z M76.163,186.943c-5.268,0-9.554,4.286-9.554,9.553
			c0,5.269,4.286,9.555,9.554,9.555s9.555-4.286,9.555-9.555C85.718,191.229,81.431,186.943,76.163,186.943z"/>
	</g>
	<g>
		<path class="st0" d="M187.288,215.753c-10.618,0-19.255-8.639-19.255-19.256c0-10.618,8.637-19.255,19.255-19.255
			c10.618,0,19.256,8.637,19.256,19.255C206.544,207.114,197.906,215.753,187.288,215.753z M187.288,186.943
			c-5.268,0-9.553,4.286-9.553,9.553c0,5.269,4.286,9.555,9.553,9.555c5.269,0,9.555-4.286,9.555-9.555
			C196.843,191.229,192.557,186.943,187.288,186.943z"/>
	</g>
	<g>
		<path class="st0" d="M114.705,152.52H70.578c-2.679,0-4.851-2.172-4.851-4.851v-44.128c0-2.679,2.172-4.851,4.851-4.851h44.127
			c2.679,0,4.851,2.172,4.851,4.851v44.128C119.556,150.348,117.384,152.52,114.705,152.52z M75.428,142.818h34.426v-34.427H75.428
			V142.818z"/>
	</g>
	<g>
		<path class="st0" d="M114.705,88.077H70.578c-2.679,0-4.851-2.172-4.851-4.851V39.098c0-2.679,2.172-4.851,4.851-4.851h44.127
			c2.679,0,4.851,2.172,4.851,4.851v44.128C119.556,85.905,117.384,88.077,114.705,88.077z M75.428,78.375h34.426V43.949H75.428
			V78.375z"/>
	</g>
	<g>
		<path class="st0" d="M203.885,152.52h-65.531c-2.679,0-4.851-2.172-4.851-4.851V82.138c0-2.679,2.172-4.851,4.851-4.851h65.531
			c2.679,0,4.851,2.172,4.851,4.851v65.531C208.735,150.348,206.563,152.52,203.885,152.52z M143.205,142.818h55.829V86.989h-55.829
			V142.818z"/>
	</g>
</g>
</svg>
