<?xml version="1.0" encoding="utf-8"?>
<!-- Generator: Adobe Illustrator 22.0.1, SVG Export Plug-In . SVG Version: 6.00 Build 0)  -->
<svg version="1.1" id="Layer_1" xmlns="http://www.w3.org/2000/svg" xmlns:xlink="http://www.w3.org/1999/xlink" x="0px" y="0px"
	 viewBox="0 0 250 250" style="enable-background:new 0 0 250 250;" xml:space="preserve">
<style type="text/css">
	.st0{fill:#0AC6A6;}
</style>
<g>
	<path class="st0" d="M203.238,17.535H46.762c-2.679,0-4.851,2.172-4.851,4.851v205.229c0,2.679,2.172,4.851,4.851,4.851h156.476
		c2.679,0,4.851-2.172,4.851-4.851V22.385C208.089,19.707,205.917,17.535,203.238,17.535z M198.387,222.764H51.613V27.236h146.775
		V222.764z"/>
	<path class="st0" d="M71.35,103.379h25.576c2.679,0,4.851-2.172,4.851-4.851V72.952c0-2.679-2.172-4.851-4.851-4.851H71.35
		c-2.679,0-4.851,2.172-4.851,4.851v25.576C66.499,101.207,68.671,103.379,71.35,103.379z M76.2,77.803h15.875v15.875H76.2V77.803z"
		/>
	<path class="st0" d="M71.35,181.898h25.576c2.679,0,4.851-2.172,4.851-4.851v-25.576c0-2.679-2.172-4.851-4.851-4.851H71.35
		c-2.679,0-4.851,2.172-4.851,4.851v25.576C66.499,179.726,68.671,181.898,71.35,181.898z M76.2,156.322h15.875v15.875H76.2V156.322
		z"/>
	<rect x="115.74" y="71.96" class="st0" width="58.208" height="9.701"/>
	<rect x="115.74" y="89.82" class="st0" width="66.735" height="9.701"/>
	<rect x="115.74" y="168.338" class="st0" width="58.208" height="9.701"/>
	<rect x="115.74" y="150.479" class="st0" width="66.735" height="9.701"/>
</g>
</svg>
