<?xml version="1.0" encoding="utf-8"?>
<!-- Generator: Adobe Illustrator 22.0.1, SVG Export Plug-In . SVG Version: 6.00 Build 0)  -->
<svg version="1.1" id="Layer_1" xmlns="http://www.w3.org/2000/svg" xmlns:xlink="http://www.w3.org/1999/xlink" x="0px" y="0px"
	 viewBox="0 0 250 250" style="enable-background:new 0 0 250 250;" xml:space="preserve">
<style type="text/css">
	.st0{fill:#0AC6A6;}
</style>
<g>
	<path class="st0" d="M38.017,126.444c0-47.963,39.02-86.983,86.983-86.983c6.406,0,12.649,0.706,18.662,2.031l-19.007,8.122
		l3.812,8.921l34.828-14.883L148.41,8.825l-8.92,3.812l8.513,19.92c-7.375-1.816-15.074-2.797-23.003-2.797
		c-53.312,0-96.684,43.372-96.684,96.684c0,9.171,1.311,18.037,3.708,26.45c2.627-2.085,5.52-3.847,8.624-5.225
		C38.937,140.872,38.017,133.764,38.017,126.444z"/>
	<path class="st0" d="M215.908,93.531c-2.481,2.288-5.251,4.265-8.251,5.871c2.794,8.518,4.326,17.602,4.326,27.042
		c0,47.962-39.021,86.983-86.983,86.983c-9.16,0-17.987-1.438-26.283-4.079l20.915-7.737l-3.366-9.098l-35.522,13.141l3.026,8.18
		c-0.01,0.009-0.019,0.019-0.029,0.028c0.015,0.007,0.031,0.013,0.047,0.021l10.096,27.295l9.099-3.366l-7.106-19.212
		c9.198,2.918,18.972,4.53,29.125,4.53c53.312,0,96.684-43.372,96.684-96.684C221.684,114.892,219.641,103.809,215.908,93.531z"/>
	<path class="st0" d="M61.301,178.304v-11.283c3.044,0.816,6.236,2.375,9.204,4.38l4.974-8.685
		c-4.082-2.822-8.537-4.751-13.807-5.419v-4.529h-7.72v4.306c-9.353,0.965-15.588,6.384-15.588,14.549v0.148
		c0,8.833,5.27,12.842,15.959,15.737v11.803c-4.38-0.891-8.091-2.97-12.099-6.013l-5.79,8.463c4.9,3.712,11.135,6.236,17.518,7.052
		v7.497h7.72v-7.348c9.353-0.965,15.737-6.31,15.737-14.623v-0.15C77.409,185.876,72.585,181.348,61.301,178.304z M54.323,176.449
		c-4.082-1.485-5.122-2.97-5.122-5.345v-0.148c0-2.375,1.485-4.156,5.122-4.603V176.449z M66.571,194.932
		c0,2.673-1.781,4.232-5.27,4.751V189.29c4.008,1.485,5.27,3.044,5.27,5.493V194.932z"/>
	<path class="st0" d="M172.872,74.324l-5.791,8.463c4.901,3.711,11.135,6.235,17.518,7.051v7.497h7.72v-7.348
		c9.353-0.965,15.737-6.31,15.737-14.624v-0.149c0-8.313-4.825-12.842-16.108-15.885V48.046c3.044,0.816,6.236,2.375,9.204,4.38
		l4.975-8.685c-4.082-2.821-8.537-4.751-13.808-5.419v-4.528h-7.72V38.1c-9.352,0.965-15.587,6.384-15.587,14.549v0.148
		c0,8.833,5.269,12.842,15.959,15.737v11.802C180.591,79.446,176.881,77.368,172.872,74.324z M191.949,70.316
		c4.008,1.485,5.269,3.044,5.269,5.493v0.148c0,2.673-1.781,4.231-5.269,4.751V70.316z M179.849,52.129v-0.148
		c0-2.375,1.485-4.157,5.123-4.603v10.096C180.889,55.989,179.849,54.504,179.849,52.129z"/>
</g>
</svg>
