<?xml version="1.0" encoding="utf-8"?>
<!-- Generator: Adobe Illustrator 22.0.1, SVG Export Plug-In . SVG Version: 6.00 Build 0)  -->
<svg version="1.1" id="Layer_1" xmlns="http://www.w3.org/2000/svg" xmlns:xlink="http://www.w3.org/1999/xlink" x="0px" y="0px"
	 viewBox="0 0 250 250" style="enable-background:new 0 0 250 250;" xml:space="preserve">
<style type="text/css">
	.st0{fill:#0AC6A6;}
</style>
<path class="st0" d="M225.668,60.919h-43.97c-2.096-21.311-26.716-38.191-56.7-38.191c-29.982,0-54.602,16.88-56.698,38.191h-43.97
	c-2.679,0-4.851,2.172-4.851,4.851v156.652c0,2.679,2.172,4.851,4.851,4.851h201.337c2.679,0,4.851-2.172,4.851-4.851V65.769
	C230.519,63.091,228.347,60.919,225.668,60.919z M124.999,32.429c24.514,0,44.711,12.533,46.946,28.489H78.055
	C80.289,44.962,100.486,32.429,124.999,32.429z M220.818,70.62v34.759h-61.571H88.688H29.182V70.62H220.818z M93.539,115.081h60.858
	v24.164H93.539V115.081z M29.182,217.571v-102.49h54.655v29.015c0,2.679,2.172,4.851,4.851,4.851h70.559
	c2.679,0,4.851-2.172,4.851-4.851v-29.015h56.72v102.49H29.182z"/>
</svg>
