<?xml version="1.0" encoding="utf-8"?>
<!-- Generator: Adobe Illustrator 22.0.1, SVG Export Plug-In . SVG Version: 6.00 Build 0)  -->
<svg version="1.1" id="Layer_1" xmlns="http://www.w3.org/2000/svg" xmlns:xlink="http://www.w3.org/1999/xlink" x="0px" y="0px"
	 viewBox="0 0 250 250" style="enable-background:new 0 0 250 250;" xml:space="preserve">
<style type="text/css">
	.st0{fill:#0AC6A6;}
</style>
<g>
	<path class="st0" d="M111.545,90.735c-1.068,3.094-1.729,6.292-1.96,9.524c10.107,1.414,19.444,6.039,26.789,13.382
		c18.436,18.438,18.436,48.436,0,66.874l-30.448,30.448c-18.438,18.435-48.436,18.435-66.874,0
		c-8.931-8.933-13.851-20.808-13.851-33.438c0-12.631,4.92-24.507,13.851-33.438l30.446-30.446
		c3.401-3.401,7.231-6.216,11.366-8.404c-0.124-3.653,0.049-7.312,0.518-10.942c-6.929,2.829-13.292,7.035-18.743,12.486
		l-30.446,30.446c-10.764,10.762-16.693,25.073-16.693,40.297c0,15.222,5.929,29.533,16.693,40.297
		c11.109,11.11,25.702,16.666,40.297,16.666c14.593,0,29.187-5.555,40.296-16.666l30.448-30.448
		c10.764-10.762,16.691-25.073,16.691-40.297c0-15.222-5.929-29.533-16.693-40.296C134.525,98.076,123.498,92.536,111.545,90.735z"
		/>
	<path class="st0" d="M217.808,32.205c-10.762-10.764-25.073-16.693-40.297-16.693c-15.222,0-29.533,5.929-40.297,16.693
		l-30.446,30.446c-22.219,22.219-22.219,58.375,0,80.595c8.936,8.936,20.125,14.277,31.755,16.026h0v0
		c1.056-3.09,1.695-6.294,1.918-9.521c0-0.001,0-0.003,0-0.004c-0.056-0.008-0.112-0.011-0.168-0.019
		c-9.757-1.404-19.155-5.851-26.646-13.34c-18.436-18.438-18.436-48.438,0-66.876l30.446-30.446
		c8.933-8.931,20.808-13.851,33.438-13.851c12.631,0,24.507,4.92,33.438,13.851c8.931,8.931,13.851,20.807,13.851,33.438
		c0,12.63-4.92,24.505-13.851,33.438l-30.446,30.446c-3.289,3.288-6.95,5.978-10.844,8.093c0.129,3.668-0.041,7.345-0.509,10.99
		c6.623-2.775,12.828-6.841,18.212-12.224l30.446-30.446c10.764-10.764,16.693-25.075,16.693-40.297
		C234.501,57.278,228.572,42.967,217.808,32.205z"/>
</g>
</svg>
