<?xml version="1.0" encoding="utf-8"?>
<!-- Generator: Adobe Illustrator 22.0.1, SVG Export Plug-In . SVG Version: 6.00 Build 0)  -->
<svg version="1.1" id="Layer_1" xmlns="http://www.w3.org/2000/svg" xmlns:xlink="http://www.w3.org/1999/xlink" x="0px" y="0px"
	 viewBox="0 0 250 250" style="enable-background:new 0 0 250 250;" xml:space="preserve">
<style type="text/css">
	.st0{fill:#0AC6A6;}
</style>
<g>
	<path class="st0" d="M77.421,177.39c-5.088,4.089-10.508,12.244-4.521,16.441c3.579,2.509,9.021,1.566,15.516-3.203
		c6.537-4.8,12.805-14.723,9.932-17.849C93.66,167.678,82.509,173.301,77.421,177.39z"/>
	<path class="st0" d="M204.16,190.627c-3.181-29.266-45.831-43.826-55.56-46.778c4.556-4.231,9.514-9.148,14.48-14.652h19.676
		c5.431,0,9.851-4.419,9.851-9.851V81.949c8.071-24.332,3.413-42.461,3.157-43.413l-2.489-9.244l-11.017,13.769H67.696
		L56.679,29.292l-2.489,9.244c-0.256,0.952-4.914,19.081,3.157,43.413v37.398c0,5.432,4.42,9.851,9.851,9.851h19.672
		c4.96,5.498,9.918,10.426,14.473,14.655c-9.747,2.958-52.37,17.518-55.55,46.775c-1.185,10.919,3.59,20.3,13.1,25.737
		c5.1,2.916,10.964,4.344,16.981,4.344c8.449,0,17.198-2.818,24.543-8.291c12.03-8.964,19.896-24.525,24.559-36.795
		c4.663,12.27,12.53,27.831,24.559,36.795c7.345,5.473,16.094,8.291,24.543,8.291c6.015,0,11.882-1.429,16.981-4.344
		C200.57,210.928,205.345,201.547,204.16,190.627z M142.338,136.349l-5.722-7.151h13.075
		C147.167,131.766,144.703,134.143,142.338,136.349z M182.905,80.235v22.634v16.478c0,0.083-0.067,0.15-0.15,0.15h-11.453h-12.633
		h-25.145h-4.671L96.427,78.97h57.099h12.424h16.955V80.235z M174.496,52.762h8.26c0.083,0,0.15,0.067,0.15,0.149v4.867v5.003
		h-4.003h-12.423H83.475l-8.017-10.019H174.496z M67.198,119.496c-0.083,0-0.15-0.067-0.15-0.15v-16.478
		c3.529,5.857,7.48,11.425,11.602,16.628H67.198z M75.093,97.431C64.132,79.075,62.199,62.343,62.391,51.957l75.184,93.967
		l-12.598,5.096l-0.227-0.092C116.984,145.003,90.966,124.013,75.093,97.431z M94.619,204.639
		c-11.002,8.198-23.452,7.569-30.911,3.303c-3.53-2.017-9.297-6.813-8.268-16.267c1.419-13.071,14.647-22.876,25.494-28.801
		c9.87-5.391,19.658-8.638,23.335-9.763l1.405,0.568l14.213,5.749c0.023,0.095,0.043,0.176,0.068,0.278
		C117.282,169.418,109.382,193.639,94.619,204.639z M186.245,207.942c-7.46,4.264-19.913,4.895-30.911-3.303
		c-14.762-10.999-22.662-35.22-25.336-44.933c0.025-0.102,0.045-0.183,0.068-0.278l15.643-6.328
		c14.191,4.185,46.561,17.924,48.804,38.575C195.542,201.129,189.775,205.924,186.245,207.942z"/>
	<path class="st0" d="M172.532,177.39c-5.088-4.089-16.239-9.712-20.926-4.612c-2.873,3.126,3.395,13.049,9.932,17.849
		c6.495,4.769,11.937,5.712,15.516,3.203C183.04,189.634,177.62,181.479,172.532,177.39z"/>
</g>
</svg>
