<svg id="Layer_1" xmlns="http://www.w3.org/2000/svg" viewBox="0 0 250 250"><style>.st0{fill:#0AC6A6}</style><path class="st0" d="M125.001 27.751c-59.952 0-108.725 48.774-108.725 108.726 0 27.537 10.333 53.816 29.096 73.995a4.84 4.84 0 0 0 3.554 1.549 4.828 4.828 0 0 0 3.302-1.299 4.85 4.85 0 0 0 .25-6.854c-17.089-18.381-26.5-42.314-26.5-67.391 0-54.602 44.422-99.024 99.024-99.024 54.601 0 99.022 44.422 99.022 99.024 0 25.079-9.41 49.012-26.498 67.391a4.85 4.85 0 0 0 .25 6.854 4.846 4.846 0 0 0 6.854-.25c18.762-20.178 29.096-46.457 29.096-73.995-.001-59.952-48.775-108.726-108.725-108.726z"/><path class="st0" d="M192.756 149.306l-53.852-11.405c-1.006-6.785-6.838-11.996-13.903-11.996-7.772 0-14.073 6.301-14.073 14.073s6.301 14.073 14.073 14.073c5.044 0 9.455-2.662 11.94-6.649l53.807 11.395c.338.072.675.107 1.009.107a4.85 4.85 0 0 0 .999-9.598z"/><ellipse transform="rotate(-67.5 188.58 196.487)" class="st0" cx="188.582" cy="196.491" rx="4.443" ry="4.443"/><ellipse transform="rotate(-45.001 209.342 158.047)" class="st0" cx="209.342" cy="158.044" rx="4.443" ry="4.443"/><ellipse transform="rotate(-45.001 208.223 112.621)" class="st0" cx="208.223" cy="112.619" rx="4.443" ry="4.443"/><ellipse transform="rotate(-67.5 185.645 75.289)" class="st0" cx="185.648" cy="75.291" rx="4.443" ry="4.443"/><circle class="st0" cx="147.735" cy="53.602" r="4.443"/><circle class="st0" cx="102.266" cy="53.602" r="4.443"/><circle class="st0" cx="64.353" cy="75.291" r="4.443"/><circle class="st0" cx="41.778" cy="112.619" r="4.443"/><ellipse transform="rotate(-13.286 40.646 158.013)" class="st0" cx="40.658" cy="158.044" rx="4.443" ry="4.443"/><ellipse transform="rotate(-9.213 61.43 196.466)" class="st0" cx="61.419" cy="196.491" rx="4.443" ry="4.443"/></svg>