<svg id="Layer_1" xmlns="http://www.w3.org/2000/svg" viewBox="0 0 250 250"><style>.st0{fill:#0AC6A6}</style><path class="st0" d="M230.643 71.288a152.593 152.593 0 0 0-12.479-3.471V46.014a4.85 4.85 0 0 0-3.035-4.498C186.387 29.919 152.951 35.122 125 55.363 97.052 35.122 63.613 29.918 34.873 41.516a4.85 4.85 0 0 0-3.036 4.498v21.802a152.727 152.727 0 0 0-12.48 3.471 4.85 4.85 0 0 0-3.352 4.613v133.81c0 1.553.743 3.012 2 3.924a4.845 4.845 0 0 0 4.349.689c28.423-9.235 58.468-9.234 86.89 0a4.84 4.84 0 0 0 1.499.239 4.853 4.853 0 0 0 4.612-3.354 4.802 4.802 0 0 0 .216-1.499h.022c0-5.929 4.22-10.752 9.407-10.752s9.408 4.823 9.408 10.752h.022c0 .497.054 1 .216 1.499a4.853 4.853 0 0 0 4.612 3.354 4.86 4.86 0 0 0 1.499-.239c28.421-9.235 58.467-9.235 86.889 0a4.85 4.85 0 0 0 6.349-4.613V75.901a4.85 4.85 0 0 0-3.352-4.613zM106.817 203.447c-26.641-7.581-54.443-7.671-81.11-.262V79.47a138.278 138.278 0 0 1 6.131-1.662V182.78c0 1.612.801 3.119 2.138 4.02a4.847 4.847 0 0 0 4.529.478c23.087-9.32 49.716-6.316 73.223 7.751a20.714 20.714 0 0 0-4.911 8.418zm13.332-14.65c-16.872-10.943-35.455-16.596-53.652-16.596-8.472 0-16.867 1.227-24.959 3.716V49.366c25.205-8.89 54.2-3.579 78.611 14.464v124.967zm9.702 0V63.83c24.411-18.043 53.408-23.358 78.612-14.464v126.551c-25.473-7.835-53.883-3.161-78.612 12.88zm94.443 14.388c-26.665-7.407-54.468-7.32-81.109.262a20.735 20.735 0 0 0-4.909-8.417c23.508-14.065 50.137-17.068 73.223-7.751a4.847 4.847 0 0 0 4.529-.478 4.849 4.849 0 0 0 2.138-4.02V77.809c2.05.51 4.094 1.055 6.13 1.661v123.715z"/><path class="st0" d="M56.443 77.351v9.731c16.216-1.447 33.054 2.271 48.801 10.794V86.993c-15.816-7.617-32.541-10.931-48.801-9.642zM56.443 101.898v9.731c16.216-1.446 33.054 2.272 48.801 10.794v-10.884c-15.816-7.618-32.541-10.931-48.801-9.641zM56.443 126.445v9.731c16.209-1.445 33.054 2.271 48.801 10.793v-10.883c-15.817-7.617-32.54-10.929-48.801-9.641zM193.557 87.083v-9.731c-16.265-1.29-32.986 2.024-48.801 9.642v10.884c15.748-8.524 32.595-12.239 48.801-10.795zM193.557 111.629v-9.732c-16.265-1.291-32.986 2.024-48.801 9.642v10.884c15.748-8.523 32.595-12.237 48.801-10.794zM193.557 136.176v-9.731c-16.263-1.284-32.984 2.025-48.801 9.641v10.883c15.747-8.522 32.587-12.241 48.801-10.793z"/></svg>