<?xml version="1.0" encoding="utf-8"?>
<svg xmlns="http://www.w3.org/2000/svg" viewBox="0 0 211.711 62.717"><defs><style>.cls-1{fill:#fff;}.cls-2{fill:#0ac6a6;}</style></defs><title>Moula_Reverse</title><g id="Layer_2" data-name="Layer 2"><g id="Layer_1-2" data-name="Layer 1"><polygon class="cls-1" points="81.564 12.947 93.514 31.464 105.464 12.947 111.281 12.947 111.281 49.77 104.992 49.77 104.992 25.046 93.514 42.563 82.036 25.046 82.036 49.77 75.747 49.77 75.747 12.947 81.564 12.947"/><path class="cls-1" d="M142.666,37.3a13.261,13.261,0,1,1-13.259-13.1,13.089,13.089,0,0,1,13.259,13.1m-6.394,0c0-3.893-2.62-7.207-6.865-7.207s-6.866,3.314-6.866,7.207,2.62,7.207,6.866,7.207,6.865-3.314,6.865-7.207"/><path class="cls-1" d="M147.158,40.986V24.836h6.29V39.249c0,3.682,1.729,5.261,4.926,5.261,3.25,0,4.927-3.051,4.927-3.051V24.836h6.29V49.771H163.72v-3.63a8.888,8.888,0,0,1-7.442,4.261c-4.769,0-9.12-3.42-9.12-9.416"/><path class="cls-1" d="M211.711,33.515V49.771h-5.818V46.614a10.046,10.046,0,0,1-8.176,3.788c-4.664,0-8.962-3.052-8.962-8.365,0-4.787,4.35-8.259,9.748-8.259,4.561,0,6.919,1.789,6.919,1.789v-1.42c0-3.262-3.146-4.314-5.346-4.314a20.108,20.108,0,0,0-7.443,1.841l-2.044-5.209a25.1,25.1,0,0,1,9.8-2.261c7.128,0,11.321,3.63,11.321,9.311m-6.289,8.733V39.67a12.528,12.528,0,0,0-5.66-1.262c-1.94,0-4.614.841-4.614,3.525,0,2.63,2.569,3.208,4.509,3.208a7.362,7.362,0,0,0,5.765-2.893"/><path class="cls-1" d="M175.779,41.768V15.089l6.29-2.143V42.08c0,1.638.756,2.157,1.377,2.157a17.541,17.541,0,0,0,2.252-.1l.908,5.632a9.809,9.809,0,0,1-3.82.636c-5.222,0-7.007-3.418-7.007-8.634"/><circle class="cls-1" cx="31.358" cy="31.358" r="31.358"/><path class="cls-2" d="M46.244,7.751a2.091,2.091,0,0,0-3.077.327L35,19.226a3.638,3.638,0,0,0,.782,5.085l.443.325,8.6-11.733c.718,1.726.962,4.477-1.656,8.043l-5.378,7.327v2.561h-.959a2.531,2.531,0,0,0-2.531,2.532v1.655h3.49V39.66a56.48,56.48,0,0,0-12.852,0V35.021h3.49V33.366a2.531,2.531,0,0,0-2.531-2.532h-.959V28.293l-5.383-7.338c-2.619-3.569-2.367-6.323-1.649-8.047l8.6,11.728.443-.325a3.64,3.64,0,0,0,.781-5.086L19.553,8.086a2.093,2.093,0,0,0-3.076-.326c-2.472,2.194-5.716,8.293-.3,15.672l4.572,6.232V46.776a2.1,2.1,0,0,0,.133.734,10.933,10.933,0,0,0,10.479,6.579,10.935,10.935,0,0,0,10.48-6.579,2.1,2.1,0,0,0,.133-.734V29.645l4.567-6.222C51.956,16.041,48.714,9.943,46.244,7.751Zm-11.195,41.3L34.431,46.9a.161.161,0,0,0-.269-.075l-1.884,2.533a1.3,1.3,0,0,1-1.839,0l-1.885-2.533a.16.16,0,0,0-.268.075l-.617,2.145a6.626,6.626,0,0,1-2.737-2.718V43.877a52.238,52.238,0,0,1,12.852,0v2.45A6.55,6.55,0,0,1,35.049,49.047Z"/></g></g></svg>